<?xml version="1.0" encoding="UTF-8"?>
<!DOCTYPE svg PUBLIC "-//W3C//DTD SVG 1.1//EN" "http://www.w3.org/Graphics/SVG/1.1/DTD/svg11.dtd">
<!-- Creator: CorelDRAW -->
<svg xmlns="http://www.w3.org/2000/svg" xml:space="preserve" width="6.82666in" height="6.82666in" style="shape-rendering:geometricPrecision; text-rendering:geometricPrecision; image-rendering:optimizeQuality; fill-rule:evenodd; clip-rule:evenodd"
viewBox="0 0 6.82666 6.82666"
 xmlns:xlink="http://www.w3.org/1999/xlink">
 <defs>
  <style type="text/css">
   <![CDATA[
    .fil1 {fill:none}
    .fil0 {fill:#C11316}
   ]]>
  </style>
 </defs>
 <g id="Layer_x0020_1">
  <metadata id="CorelCorpID_0Corel-Layer"/>
  <g id="_531747792">
   <g>
    <g>
     <path id="_531748560" class="fil0" d="M4.39931 3.6218c-0.369728,0 -0.717319,-0.143972 -0.97876,-0.405417 -0.261445,-0.261445 -0.405421,-0.609043 -0.405421,-0.978776 0,-0.369732 0.143976,-0.717331 0.405421,-0.978776 0.261374,-0.261386 0.608933,-0.40535 0.978634,-0.40535 0.138075,0 0.274843,0.0204449 0.406504,0.060748 0.0178976,0.00548425 0.0316102,0.0199409 0.0361339,0.0381063 0.0045315,0.0181693 -0.00080315,0.0373583 -0.0140394,0.0506063l-0.698028 0.698028 0.128406 0.658736 0.678295 0.146961 0.697543 -0.697528c0.0132323,-0.013248 0.0324961,-0.0185551 0.0505945,-0.0140394 0.0181811,0.00452756 0.0326417,0.0182362 0.0381102,0.0361339 0.150449,0.49137 0.0184016,1.02213 -0.344602,1.38514 -0.261461,0.261457 -0.609051,0.405429 -0.978791,0.405429zm-0.000122047 -2.66164c-0.341205,0 -0.661976,0.13285 -0.90322,0.374102 -0.241295,0.241291 -0.374173,0.562102 -0.374173,0.903346 0,0.341244 0.132878,0.662059 0.374173,0.903346 0.241303,0.241291 0.562118,0.374189 0.903346,0.374189 0.341244,0 0.662071,-0.132898 0.903362,-0.374189 0.313618,-0.313634 0.440461,-0.762941 0.34148,-1.19113l-0.652846 0.652835c-0.0128189,0.0128189 -0.031248,0.0182362 -0.049,0.0144173l-0.741051 -0.160559c-0.0208346,-0.00451575 -0.0369724,-0.0209961 -0.0410394,-0.0419134l-0.140559 -0.721071c-0.00340157,-0.0174134 0.00208661,-0.0353701 0.0146417,-0.0479134l0.652795 -0.652791c-0.0942402,-0.0217047 -0.190709,-0.0326654 -0.287909,-0.0326654z"/>
    </g>
    <g>
     <path id="_531747624" class="fil0" d="M2.03402 5.31553c-0.0136535,0 -0.0272874,-0.00520866 -0.0377047,-0.015626l-0.659307 -0.659311c-0.0208346,-0.0208189 -0.0208346,-0.0545945 0,-0.0754134l1.81329 -1.81331c0.0208346,-0.0208189 0.0545945,-0.0208189 0.0754291,0 0.0208346,0.0208346 0.0208346,0.0545945 0,0.0754291l-1.77559 1.77559 0.583882 0.583882 1.7756 -1.77559c0.0208031,-0.0208189 0.0546063,-0.0208189 0.0754134,0 0.0208346,0.0208307 0.0208346,0.0545945 0,0.0754134l-1.81329 1.81331c-0.0104134,0.0104134 -0.0240669,0.015622 -0.0377205,0.015622z"/>
    </g>
    <g>
     <path id="_531747264" class="fil0" d="M2.03568 4.93719l0 0c-0.0141496,0 -0.0277047,-0.00561417 -0.0377047,-0.015626l-0.282606 -0.282626c-0.0208346,-0.020815 -0.0208346,-0.0545945 0,-0.0754134l0.419933 -0.419933c0.01,-0.0100118 0.0235669,-0.015626 0.0377047,-0.015626l0 0c0.0141496,0 0.0277047,0.00561417 0.0377008,0.015626l0.28261 0.282626c0.0208307,0.020815 0.0208307,0.0545945 0,0.0754134l-0.419933 0.419933c-0.00998425,0.0100039 -0.0235512,0.015626 -0.0377047,0.015626zm-0.207185 -0.335949l0.207185 0.207193 0.34452 -0.34452 -0.207185 -0.207193 -0.34452 0.34452z"/>
    </g>
   </g>
   <g>
    <g>
     <path id="_531747216" class="fil0" d="M2.05824 3.34297c-0.00512205,0 -0.0102795,-0.00073622 -0.0153189,-0.00225197l-0.775717 -0.232693c-0.018248,-0.00548819 -0.0321929,-0.0202638 -0.036563,-0.0388031l-0.18635 -0.788146c-0.00438976,-0.0185394 0.00145669,-0.0380118 0.015315,-0.0510787l0.589382 -0.555453c0.0138622,-0.0130669 0.033626,-0.0177598 0.0518976,-0.0122756l0.775717 0.232693c0.018252,0.00548819 0.0321929,0.0202638 0.036563,0.0388189l0.186339 0.788146c0.00438583,0.0185394 -0.00146063,0.0380118 -0.0153189,0.0510787l-0.589382 0.555437c-0.0100079,0.00945669 -0.0231457,0.0145276 -0.036563,0.0145276zm-0.730902 -0.32826l0.716732 0.215 0.544567 -0.513201 -0.172169 -0.728217 -0.716732 -0.215 -0.544567 0.513217 0.172169 0.728201z"/>
    </g>
    <g>
     <path id="_531747432" class="fil0" d="M1.87206 2.93319c-0.0419134,0 -0.0836732,-0.00615354 -0.124157,-0.0182953 -0.110425,-0.0331181 -0.201339,-0.107268 -0.256,-0.208764 -0.0546654,-0.101504 -0.0665118,-0.218205 -0.0333898,-0.328646 0.0543425,-0.181154 0.22428,-0.307689 0.413248,-0.307689 0.0419134,0 0.0836772,0.00615354 0.124146,0.0182953 0.227945,0.0683819 0.35776,0.309465 0.289386,0.537409 -0.0543228,0.181165 -0.224256,0.307689 -0.413232,0.307689zm-0.000287402 -0.756736c-0.142244,0 -0.270177,0.0952598 -0.311079,0.231665 -0.0249449,0.0831339 -0.0160157,0.171 0.0251378,0.247417 0.0411535,0.0764094 0.109591,0.132244 0.192724,0.157173 0.0305276,0.00916142 0.0619803,0.0138031 0.0935039,0.0138031 0.142256,0 0.270181,-0.0952717 0.311079,-0.231681 0.0514843,-0.171618 -0.0462598,-0.353118 -0.217874,-0.404602 -0.0305157,-0.0091378 -0.0619646,-0.0137756 -0.0934921,-0.0137756z"/>
    </g>
   </g>
   <g>
    <g>
     <path id="_531747552" class="fil0" d="M4.40049 5.97319l-0.327772 0c-0.0294567,0 -0.0533307,-0.0238701 -0.0533307,-0.0533268l0 -0.219457c-0.117268,-0.0344134 -0.224209,-0.0962165 -0.313094,-0.180961l-0.190224 0.109815c-0.0255118,0.0147323 -0.0581339,0.006 -0.0728386,-0.0195118l-0.163882 -0.283846c-0.0147244,-0.0255118 -0.00598425,-0.058122 0.0195276,-0.0728425l0.190087 -0.10974c-0.0142205,-0.0590512 -0.0214291,-0.119689 -0.0214291,-0.180835 0,-0.0611181 0.00720472,-0.121783 0.0214409,-0.180835l-0.190098 -0.109756c-0.0255118,-0.0147323 -0.034252,-0.0473307 -0.0195276,-0.0728425l0.16389 -0.283854c0.0147244,-0.0255 0.047315,-0.0342756 0.0728425,-0.0195118l0.190224 0.109827c0.0888543,-0.084748 0.195795,-0.146547 0.313079,-0.180961l0 -0.219457c0,-0.0294567 0.0238701,-0.0533307 0.0533307,-0.0533307l0.327776 -1.9685e-005c0.0294567,0 0.0533268,0.0238701 0.0533268,0.0533307l0 0.219457c0.117287,0.0344252 0.224224,0.0962441 0.313094,0.180957l0.190224 -0.109823c0.0122638,-0.00707087 0.0268031,-0.00898819 0.0404724,-0.00533465 0.0136496,0.00366929 0.0253031,0.0125984 0.0323701,0.0248425l0.163878 0.283858c0.0147362,0.0255118 0.006,0.058122 -0.0195079,0.0728425l-0.190098 0.109756c0.0142323,0.0590236 0.0214409,0.119661 0.0214409,0.180835 0,0.0611732 -0.00720866,0.121815 -0.0214409,0.180835l0.190098 0.109756c0.0255079,0.0147362 0.034248,0.0473307 0.0195079,0.0728425l-0.163878 0.283854c-0.00707087,0.012252 -0.0187244,0.0211811 -0.0323701,0.0248465 -0.0136693,0.00365354 -0.0282205,0.00173622 -0.0404724,-0.00533465l-0.19024 -0.109827c-0.0888543,0.084748 -0.195791,0.146547 -0.313079,0.180961l0 0.219457c0,0.0294724 -0.0238701,0.0533346 -0.0533268,0.0533346zm-0.274441 -0.106642l0.22111 0 0 -0.207197c0,-0.0247638 0.0170512,-0.0462756 0.0411614,-0.0519134 0.126701,-0.0297047 0.24111,-0.095815 0.330843,-0.19122 0.0169567,-0.018 0.044063,-0.0220394 0.0655079,-0.0096378l0.179614 0.103689 0.110551 -0.1915 -0.179433 -0.103606c-0.0214331,-0.0123701 -0.0315433,-0.0378583 -0.0244016,-0.0615472 0.0185945,-0.0618189 0.0280394,-0.126118 0.0280394,-0.191146 0,-0.0650236 -0.00944488,-0.129323 -0.0280394,-0.191142 -0.00714173,-0.0236929 0.0029685,-0.0491772 0.0244016,-0.0615512l0.179433 -0.103606 -0.110551 -0.191488 -0.179598 0.103689c-0.0214331,0.0124055 -0.0485669,0.00837402 -0.0655079,-0.0096378 -0.0897441,-0.0953937 -0.204157,-0.161531 -0.330858,-0.191236 -0.0241102,-0.0056378 -0.0411614,-0.0271535 -0.0411614,-0.0519134l0 -0.207197 -0.22111 -7.87402e-006 0 0.207193c0,0.0247677 -0.0170551,0.0462756 -0.0411654,0.0519134 -0.126701,0.0297047 -0.241106,0.095815 -0.330839,0.191224 -0.0169449,0.0180118 -0.0440669,0.0220236 -0.0655079,0.00963386l-0.179602 -0.103689 -0.110547 0.1915 0.179421 0.103606c0.0214291,0.012374 0.0315394,0.0378622 0.0244016,0.0615512 -0.0185984,0.0618583 -0.0280394,0.126161 -0.0280394,0.191142 0,0.0650118 0.00943307,0.129327 0.0280394,0.191169 0.00712205,0.0236969 -0.00298819,0.0491654 -0.0244134,0.0615394l-0.179406 0.103591 0.110535 0.191488 0.179598 -0.103673c0.0214409,-0.0124016 0.048563,-0.00838583 0.0655079,0.0096378 0.0897756,0.0954134 0.204165,0.161535 0.330858,0.191197 0.0241063,0.00565354 0.0411614,0.0271654 0.0411614,0.0519291l-3.93701e-006 0.207217z"/>
    </g>
    <g>
     <path id="_531747120" class="fil0" d="M4.23661 5.38885c-0.235126,0 -0.426406,-0.191264 -0.426406,-0.42639 0,-0.235126 0.19128,-0.42639 0.426406,-0.42639 0.23511,0 0.426378,0.191264 0.426378,0.42639 0,0.235126 -0.191264,0.42639 -0.426378,0.42639zm0 -0.746126c-0.176311,0 -0.319744,0.143437 -0.319744,0.319732 0,0.176291 0.143433,0.319728 0.319744,0.319728 0.176295,0 0.319717,-0.143437 0.319717,-0.319728 0,-0.176295 -0.143417,-0.319732 -0.319717,-0.319732z"/>
    </g>
   </g>
  </g>
 </g>
 <rect class="fil1" width="6.82666" height="6.82666"/>
</svg>
