<?xml version="1.0" encoding="UTF-8"?>
<!DOCTYPE svg PUBLIC "-//W3C//DTD SVG 1.1//EN" "http://www.w3.org/Graphics/SVG/1.1/DTD/svg11.dtd">
<!-- Creator: CorelDRAW -->
<svg xmlns="http://www.w3.org/2000/svg" xml:space="preserve" width="6.82666in" height="6.82666in" style="shape-rendering:geometricPrecision; text-rendering:geometricPrecision; image-rendering:optimizeQuality; fill-rule:evenodd; clip-rule:evenodd"
viewBox="0 0 6.82666 6.82666"
 xmlns:xlink="http://www.w3.org/1999/xlink">
 <defs>
  <style type="text/css">
   <![CDATA[
    .fil1 {fill:none}
    .fil0 {fill:#c11316}
   ]]>
  </style>
 </defs>
 <g id="Layer_x0020_1">
  <metadata id="CorelCorpID_0Corel-Layer"/>
  <g id="_309320464">
   <g>
    <g>
     <path id="_309322408" class="fil0" d="M4.70263 5.97333l-2.5786 0c-0.016248,0 -0.0318071,-0.0075 -0.0418071,-0.0202795 -0.0101378,-0.0127795 -0.013748,-0.0295827 -0.01,-0.0454173l0.162917 -0.683335c0.00569291,-0.0240276 0.0272205,-0.0409724 0.0519449,-0.0409724l2.25277 3.93701e-006c0.0247205,0 0.0461102,0.0169449 0.0519449,0.0409724l0.162917 0.683335c0.00374803,0.0158346 0.000137795,0.0326378 -0.01,0.0454173 -0.0101378,0.0127795 -0.0258346,0.0202756 -0.0420866,0.0202756zm-2.5111 -0.106669l2.44346 0 -0.1375 -0.576665 -2.16846 0 -0.1375 0.576665z"/>
    </g>
    <g>
     <path id="_309321184" class="fil0" d="M4.42305 5.75249l-2.01944 0c-0.0294449,0 -0.0533346,-0.0238898 -0.0533346,-0.0533346 0,-0.0294449 0.0238898,-0.0533346 0.0533346,-0.0533346l2.0193 3.93701e-006c0.0294449,0 0.0533346,0.0238898 0.0533346,0.0533346 0,0.0294449 -0.023752,0.0533307 -0.0531969,0.0533307z"/>
    </g>
    <g>
     <path id="_309321088" class="fil0" d="M4.28388 5.28999c-0.0294449,0 -0.0533346,-0.0238898 -0.0533346,-0.0533346l0 -0.375138c0,-0.0754173 -0.061248,-0.136665 -0.136665,-0.136665l-1.36111 0c-0.0754173,0 -0.136665,0.0613898 -0.136665,0.136665l0 0.375138c0,0.0294449 -0.0238898,0.0533346 -0.0533346,0.0533346 -0.0294449,0 -0.0533346,-0.0238898 -0.0533346,-0.0533346l0 -0.375138c0,-0.134165 0.109165,-0.243335 0.243335,-0.243335l1.36111 3.93701e-006c0.134165,0 0.243335,0.109165 0.243335,0.243335l0 0.375138c0,0.0294409 -0.0238898,0.0533307 -0.0533346,0.0533307z"/>
    </g>
    <g>
     <path id="_309321520" class="fil0" d="M3.71388 4.72472c-0.0294449,0 -0.0533346,-0.0238898 -0.0533346,-0.0533346l0 -0.554583c0,-0.0294449 0.0238898,-0.0533346 0.0533346,-0.0533346 0.0294449,0 0.0533346,0.0238898 0.0533346,0.0533346l0 0.554583c0,0.0294449 -0.0238898,0.0533346 -0.0533346,0.0533346zm-0.601106 0c-0.0294449,0 -0.0533346,-0.0238898 -0.0533346,-0.0533346l0 -0.554583c0,-0.0294449 0.0238898,-0.0533346 0.0533346,-0.0533346 0.0294449,0 0.0533346,0.0238898 0.0533346,0.0533346l0 0.554583c0,0.0294449 -0.0238898,0.0533346 -0.0533346,0.0533346z"/>
    </g>
    <g>
     <path id="_309321712" class="fil0" d="M3.49235 4.19263l-0.158051 0c-0.637917,0 -1.15694,-0.519028 -1.15694,-1.15694l0 -1.26653c0,-0.0294449 0.0238898,-0.0533346 0.0533346,-0.0533346l2.36541 3.93701e-006c0.0294449,0 0.0533346,0.0238898 0.0533346,0.0533346l0 1.26653c-0.000137795,0.637913 -0.519165,1.15694 -1.15708,1.15694zm-1.20833 -2.37013l0 1.21319c0,0.579161 0.47111,1.05027 1.05028,1.05027l0.158051 0c0.579165,0 1.05028,-0.47111 1.05028,-1.05027l0 -1.21319 -2.2586 0z"/>
    </g>
    <g>
     <path id="_309321112" class="fil0" d="M4.79416 3.41027l-0.246248 0c-0.0294449,0 -0.0533346,-0.0238858 -0.0533346,-0.0533307 0,-0.0294449 0.0238898,-0.0533346 0.0533346,-0.0533346l0.246248 3.93701e-006c0.157638,0 0.285972,-0.128335 0.285972,-0.285972l0 -0.502083c0,-0.157638 -0.128335,-0.285972 -0.285972,-0.285972l-0.198193 0c-0.0294449,0 -0.0533346,-0.0238898 -0.0533346,-0.0533346 0,-0.0294449 0.0238898,-0.0533346 0.0533346,-0.0533346l0.198193 0c0.216528,0 0.392638,0.17611 0.392638,0.392638l0 0.502083c3.93701e-006,0.216531 -0.17611,0.392638 -0.392638,0.392638z"/>
    </g>
    <g>
     <path id="_309321472" class="fil0" d="M2.27875 3.41027l-0.246248 0c-0.216528,0 -0.392638,-0.176106 -0.392638,-0.392634l0 -0.502083c0,-0.216528 0.17611,-0.392638 0.392638,-0.392638l0.198193 -3.93701e-006c0.0294449,0 0.0533346,0.0238898 0.0533346,0.0533346 0,0.0294449 -0.0238898,0.0533346 -0.0533346,0.0533346l-0.198193 0c-0.157638,0 -0.285972,0.128335 -0.285972,0.285972l0 0.502083c0,0.157638 0.128335,0.285972 0.285972,0.285972l0.246248 0c0.0294449,0 0.0533346,0.0238898 0.0533346,0.0533346 0,0.0294449 -0.0238898,0.0533268 -0.0533346,0.0533268z"/>
    </g>
    <g>
     <path id="_309321424" class="fil0" d="M3.41333 3.73374c-0.429858,0 -0.779579,-0.349717 -0.779579,-0.779579 0,-0.429862 0.34972,-0.779583 0.779579,-0.779583 0.429862,0 0.779583,0.34972 0.779583,0.779583 0,0.429862 -0.34972,0.779579 -0.779583,0.779579zm0 -1.4525c-0.371106,0 -0.672913,0.301945 -0.672913,0.672917 0,0.370972 0.301945,0.672913 0.672913,0.672913 0.37111,0 0.672917,-0.301941 0.672917,-0.672913 0,-0.370972 -0.301807,-0.672917 -0.672917,-0.672917z"/>
    </g>
    <g>
     <path id="_309321208" class="fil0" d="M3.12778 3.40499c-0.0111102,0 -0.0220827,-0.00347244 -0.0313898,-0.0101378 -0.0166654,-0.0120787 -0.0248622,-0.0329134 -0.0209724,-0.053189l0.0556929 -0.291248 -0.216248 -0.202917c-0.0151378,-0.0141654 -0.0205551,-0.0356929 -0.0141654,-0.0554173 0.00638976,-0.0197244 0.0236102,-0.0338898 0.0440276,-0.0363898l0.294307 -0.0369449 0.12611 -0.268472c0.00874803,-0.018748 0.0276378,-0.0306929 0.0483307,-0.0306929l0 0c0.0206929,0 0.0394449,0.0119449 0.0483346,0.0306929l0.12611 0.268472 0.294307 0.0369449c0.0205551,0.0026378 0.0376378,0.0168071 0.0440276,0.0363898 0.00638976,0.0195827 0.000834646,0.041248 -0.0143071,0.0554173l-0.216248 0.202917 0.0556929 0.291248c0.00388976,0.0202795 -0.00430709,0.0409724 -0.0209724,0.053189 -0.0166654,0.0122205 -0.0390276,0.0134724 -0.0570827,0.00361024l-0.259862 -0.143051 -0.259858 0.143051c-0.00819685,0.00430709 -0.0169449,0.00652756 -0.0258346,0.00652756zm-0.0572205 -0.557634l0.155 0.14528c0.0133346,0.0125 0.0193071,0.0309724 0.0158346,0.0488898l-0.04 0.20861 0.18611 -0.1025c0.0159685,-0.00874803 0.0354134,-0.00874803 0.0513858,0l0.18611 0.1025 -0.04 -0.20861c-0.00347244,-0.0179173 0.0025,-0.0363898 0.0158346,-0.0488898l0.155 -0.14528 -0.210693 -0.0265276c-0.0181929,-0.00222047 -0.0338898,-0.013748 -0.0416654,-0.0302795l-0.0902795 -0.19222 -0.0902756 0.19222c-0.00777953,0.0165276 -0.0234724,0.0279173 -0.0416654,0.0302795l-0.210697 0.0265276z"/>
    </g>
    <g>
     <path id="_309321592" class="fil0" d="M4.59596 1.8225c-0.0294449,0 -0.0533346,-0.0238898 -0.0533346,-0.0533346l0 -0.23111c0,-0.0980551 -0.0797205,-0.17778 -0.17778,-0.17778l-1.90305 0c-0.0980551,0 -0.17778,0.0797205 -0.17778,0.17778l0 0.23111c0,0.0294449 -0.0238898,0.0533346 -0.0533346,0.0533346 -0.0294449,0 -0.0533346,-0.0238898 -0.0533346,-0.0533346l0 -0.23111c0,-0.156807 0.127638,-0.284445 0.284445,-0.284445l1.90306 0c0.156807,0 0.284445,0.127638 0.284445,0.284445l0 0.23111c0,0.0294449 -0.0238898,0.0533346 -0.0533346,0.0533346z"/>
    </g>
    <g>
     <path id="_309321568" class="fil0" d="M3.71985 1.36014c-0.00458268,0 -0.00930709,-0.000555118 -0.0138898,-0.00180709 -0.0284724,-0.0076378 -0.0452795,-0.0369449 -0.0376378,-0.0654173 0.00597244,-0.0223622 0.00916535,-0.0455551 0.00916535,-0.0688898 0,-0.145555 -0.118472,-0.264028 -0.264028,-0.264028 -0.145551,0 -0.264024,0.118472 -0.264024,0.264028 0,0.0233346 0.00305512,0.0465276 0.00902756,0.0688898 0.0076378,0.0284724 -0.00916535,0.0576378 -0.0376378,0.0654173 -0.0284724,0.0076378 -0.0577795,-0.00916535 -0.0654173,-0.0376378 -0.00847244,-0.0313898 -0.0127795,-0.0640276 -0.0127795,-0.0966654 0,-0.204445 0.166248,-0.370693 0.370689,-0.370693 0.204445,0 0.370693,0.166248 0.370693,0.370693 0,0.0326378 -0.00430709,0.0652795 -0.0127795,0.0966654 -0.00638189,0.0238898 -0.0279094,0.0394449 -0.0513819,0.0394449z"/>
    </g>
   </g>
  </g>
 </g>
 <rect class="fil1" width="6.82666" height="6.82666"/>
</svg>
